<?xml version="1.0"?>
<svg xmlns="http://www.w3.org/2000/svg" id="Filled" viewBox="0 0 512 512" width="512" height="512"><path d="M320,24H192a64,64,0,0,0-64,64V264H384V88A64,64,0,0,0,320,24Zm16,96a80,80,0,1,1-160,0V104a31.973,31.973,0,0,1,32-32h96a31.973,31.973,0,0,1,32,32Z" style="fill:#757c80"/><path d="M179.67,144H128V96h49.01a32,32,0,0,0-1.01,8v16A79.668,79.668,0,0,0,179.67,144Z" style="fill:#fc9495"/><path d="M384,96v48H332.33A79.668,79.668,0,0,0,336,120V104a32,32,0,0,0-1.01-8Z" style="fill:#fc9495"/><path d="M432,343.2a175.64,175.64,0,0,1-65.3,137.63A32.1,32.1,0,0,1,346.5,488h-181a32.058,32.058,0,0,1-20.172-7.149A176,176,0,0,1,253.27,168.021C350.281,166.546,431.567,246.179,432,343.2Z" style="fill:#fc9495"/><circle cx="256" cy="344" r="112" style="fill:#d88080"/><path d="M392,220.807V88a72.081,72.081,0,0,0-72-72H192a72.081,72.081,0,0,0-72,72V220.081a183.983,183.983,0,0,0,20.294,266.988A40.19,40.19,0,0,0,165.5,496h181a40.228,40.228,0,0,0,25.233-8.952A183.141,183.141,0,0,0,392,220.807ZM169.464,136H136V104h32v16A88.361,88.361,0,0,0,169.464,136Zm4.553,16a88.2,88.2,0,0,0,12.243,21.645A182.961,182.961,0,0,0,136,204.517V152Zm28.277,15.944A71.751,71.751,0,0,1,184,120V104a23.969,23.969,0,0,1,24-24h96a23.974,23.974,0,0,1,24,24v16a71.72,71.72,0,0,1-18.4,48.062,181.27,181.27,0,0,0-56.448-8.041A184.438,184.438,0,0,0,202.294,167.944ZM337.983,152H376v53.177a184.993,184.993,0,0,0-50.412-31.336A88.272,88.272,0,0,0,337.983,152ZM344,120V104h32v32H342.536A88.378,88.378,0,0,0,344,120ZM192,32H320a56.063,56.063,0,0,1,56,56H340.667A39.982,39.982,0,0,0,304,64H208a39.985,39.985,0,0,0-36.668,24H136A56.063,56.063,0,0,1,192,32ZM361.663,474.614A24.178,24.178,0,0,1,346.5,480h-181a24.144,24.144,0,0,1-15.139-5.366A168,168,0,0,1,253.392,176.02c.856-.013,1.708-.02,2.562-.02,43.847,0,85.428,17.138,117.333,48.422C405.79,256.293,423.8,298.489,424,343.236A167.322,167.322,0,0,1,361.663,474.614Z"/><path d="M256,224A120,120,0,1,0,376,344,120.136,120.136,0,0,0,256,224Zm0,224A104,104,0,1,1,360,344,104.118,104.118,0,0,1,256,448Z"/><path d="M246.4,315.2a8,8,0,0,0-11.2-1.6L216,328v-8a8,8,0,0,0-16,0v48a8,8,0,0,0,16,0v-8l19.2,14.4a8,8,0,0,0,9.6-12.8L221.33,344l23.47-17.6A8.005,8.005,0,0,0,246.4,315.2Z"/><path d="M312,336a8,8,0,0,0-8,8v16H280V328h16a8,8,0,0,0,0-16H272a8,8,0,0,0-8,8v48a8,8,0,0,0,8,8h40a8,8,0,0,0,8-8V344A8,8,0,0,0,312,336Z"/></svg>
