<svg height="512pt" viewBox="-27 0 511 512" width="512pt" xmlns="http://www.w3.org/2000/svg"><g fill-rule="evenodd"><path d="m371.648438 169.203125h76.765624v86.796875h-76.765624zm0 0" fill="#dcf09d"/><path d="m371.648438 256h76.765624v86.796875h-76.765624zm0 0" fill="#ff6978"/><path d="m448.414062 117.296875c0-19.191406-15.699218-34.894531-34.890624-34.894531h-41.875v86.800781h76.765624zm0 0" fill="#d0ec7e"/><path d="m448.414062 342.796875h-76.765624v86.800781h41.875c19.191406 0 34.890624-15.703125 34.890624-34.894531zm0 0" fill="#ff838e"/><path d="m10.5 10h322.765625c21.113281 0 38.382813 17.269531 38.382813 38.382812v415.234376c0 21.109374-17.269532 38.382812-38.382813 38.382812h-322.765625c0-164 0-328 0-492zm0 0" fill="#ffcb78"/><g fill="#576666"><path d="m101.292969 307.710938h39.355469v106.589843h-39.355469zm0 0"/><path d="m241.5 307.710938h39.355469v106.589843h-39.355469zm0 0"/><path d="m61.9375 329.4375h39.355469v63.136719h-39.355469zm0 0"/><path d="m280.855469 329.441406h39.359375v63.132813h-39.359375zm0 0"/></g><path d="m61.9375 96.890625h258.277344v114.5h-258.277344zm0 0" fill="#c0f0fb"/><path d="m413.523438 72.402344h-31.875v-24.019532c0-26.679687-21.703126-48.382812-48.382813-48.382812h-322.765625c-5.523438 0-10 4.476562-10 10v217.8125c0 5.519531 4.476562 10 10 10s10-4.480469 10-10v-207.8125h312.765625c15.652344 0 28.382813 12.730469 28.382813 28.382812v415.234376c0 15.648437-12.730469 28.382812-28.382813 28.382812h-312.765625v-184.191406c0-5.519532-4.476562-10-10-10s-10 4.480468-10 10v194.191406c0 5.523438 4.476562 10 10 10h322.765625c26.679687 0 48.382813-21.703125 48.382813-48.382812v-24.019532h31.875c24.753906 0 44.894531-20.140625 44.894531-44.894531v-277.40625c-.003907-24.753906-20.140625-44.894531-44.894531-44.894531zm24.890624 173.597656h-56.765624v-66.796875h56.765624zm-56.765624 20h56.765624v66.796875h-56.765624zm31.875-173.597656c13.726562 0 24.890624 11.167968 24.890624 24.894531v41.90625h-56.765624v-66.800781zm24.890624 302.300781c0 13.726563-11.164062 24.894531-24.890624 24.894531h-31.875v-66.800781h56.765624zm0 0"/><path d="m51.9375 392.570312c0 5.523438 4.476562 10 10 10h29.355469v11.730469c0 5.523438 4.476562 10 10 10h39.355469c5.523437 0 10-4.476562 10-10v-43.292969h80.851562v43.292969c0 5.523438 4.476562 10 10 10h39.355469c5.523437 0 10-4.476562 10-10v-11.726562h29.359375c5.519531 0 10-4.476563 10-10v-63.132813c0-5.523437-4.480469-10-10-10h-29.359375v-11.730468c0-5.523438-4.476563-10-10-10h-39.355469c-5.523438 0-10 4.476562-10 10v43.296874h-80.851562v-43.296874c0-5.523438-4.476563-10-10-10h-39.355469c-5.523438 0-10 4.476562-10 10v11.726562h-29.355469c-5.523438 0-10 4.476562-10 10zm258.277344-53.128906v43.132813h-19.359375v-43.132813zm-58.714844-21.730468h19.355469v86.59375h-19.355469zm-140.207031 0h19.355469v86.589843h-19.355469zm-39.355469 21.726562h19.355469v43.136719h-19.355469zm0 0"/><path d="m61.9375 221.390625h258.277344c5.519531 0 10-4.476563 10-10v-114.5c0-5.523437-4.480469-10-10-10h-258.277344c-5.523438 0-10 4.476563-10 10v114.5c0 5.523437 4.476562 10 10 10zm10-114.5h238.277344v94.5h-238.277344zm0 0"/><path d="m10.5 277.808594c5.507812 0 10-4.492188 10-10 0-5.507813-4.492188-10-10-10s-10 4.492187-10 10c0 5.507812 4.492188 10 10 10zm0 0"/></g></svg>